<svg width="75" height="31" viewBox="0 0 75 31" fill="none" xmlns="http://www.w3.org/2000/svg">
<path d="M0.0227273 23.4456V0.172829H4.94318V19.3887H14.9205V23.4456H0.0227273ZM25.9744 23.7865C24.2093 23.7865 22.6828 23.4115 21.3949 22.6615C20.1146 21.9039 19.1259 20.8509 18.429 19.5024C17.732 18.1463 17.3835 16.5743 17.3835 14.7865C17.3835 12.9834 17.732 11.4077 18.429 10.0592C19.1259 8.70313 20.1146 7.6501 21.3949 6.9001C22.6828 6.14253 24.2093 5.76374 25.9744 5.76374C27.7396 5.76374 29.2623 6.14253 30.5426 6.9001C31.8305 7.6501 32.8229 8.70313 33.5199 10.0592C34.2169 11.4077 34.5653 12.9834 34.5653 14.7865C34.5653 16.5743 34.2169 18.1463 33.5199 19.5024C32.8229 20.8509 31.8305 21.9039 30.5426 22.6615C29.2623 23.4115 27.7396 23.7865 25.9744 23.7865ZM25.9972 20.0365C26.8002 20.0365 27.4706 19.8092 28.0085 19.3546C28.5464 18.8925 28.9517 18.2637 29.2244 17.4683C29.5047 16.6728 29.6449 15.7675 29.6449 14.7524C29.6449 13.7372 29.5047 12.8319 29.2244 12.0365C28.9517 11.241 28.5464 10.6122 28.0085 10.1501C27.4706 9.68798 26.8002 9.45692 25.9972 9.45692C25.1866 9.45692 24.5047 9.68798 23.9517 10.1501C23.4063 10.6122 22.9934 11.241 22.7131 12.0365C22.4403 12.8319 22.304 13.7372 22.304 14.7524C22.304 15.7675 22.4403 16.6728 22.7131 17.4683C22.9934 18.2637 23.4063 18.8925 23.9517 19.3546C24.5047 19.8092 25.1866 20.0365 25.9972 20.0365ZM45.5767 30.3546C44.0085 30.3546 42.6638 30.1387 41.5426 29.7069C40.429 29.2827 39.5426 28.7031 38.8835 27.9683C38.2244 27.2334 37.7964 26.4077 37.5994 25.491L42.0767 24.8887C42.2131 25.2372 42.429 25.563 42.7244 25.866C43.0199 26.169 43.41 26.4115 43.8949 26.5933C44.3873 26.7827 44.9858 26.8774 45.6903 26.8774C46.7434 26.8774 47.6108 26.6198 48.2926 26.1046C48.982 25.5971 49.3267 24.7448 49.3267 23.5478V20.3546H49.1222C48.91 20.8395 48.5919 21.2978 48.1676 21.7296C47.7434 22.1615 47.1979 22.5137 46.5312 22.7865C45.8646 23.0592 45.0691 23.1956 44.1449 23.1956C42.8343 23.1956 41.6411 22.8925 40.5653 22.2865C39.4972 21.6728 38.6449 20.7372 38.0085 19.4796C37.3797 18.2145 37.0653 16.616 37.0653 14.6842C37.0653 12.7069 37.3873 11.0554 38.0312 9.72965C38.6752 8.40389 39.5313 7.41147 40.5994 6.75237C41.6752 6.09328 42.8532 5.76374 44.1335 5.76374C45.1108 5.76374 45.929 5.93041 46.5881 6.26374C47.2472 6.5895 47.7775 6.99859 48.179 7.49101C48.5881 7.97586 48.9025 8.45313 49.1222 8.92283H49.304V5.99101H54.1108V23.616C54.1108 25.1009 53.7472 26.3433 53.0199 27.3433C52.2926 28.3433 51.285 29.0933 49.9972 29.5933C48.7169 30.1009 47.2434 30.3546 45.5767 30.3546ZM45.679 19.5592C46.4593 19.5592 47.1184 19.366 47.6562 18.9796C48.2017 18.5857 48.6184 18.0251 48.9062 17.2978C49.2017 16.563 49.3494 15.6842 49.3494 14.6615C49.3494 13.6387 49.2055 12.7524 48.9176 12.0024C48.6297 11.2448 48.2131 10.6577 47.6676 10.241C47.1222 9.82434 46.4593 9.61601 45.679 9.61601C44.8835 9.61601 44.2131 9.83192 43.6676 10.2637C43.1222 10.688 42.7093 11.2789 42.429 12.0365C42.1487 12.794 42.0085 13.669 42.0085 14.6615C42.0085 15.669 42.1487 16.5403 42.429 17.2751C42.7169 18.0024 43.1297 18.5668 43.6676 18.9683C44.2131 19.3622 44.8835 19.5592 45.679 19.5592ZM65.8494 23.7865C64.0843 23.7865 62.5578 23.4115 61.2699 22.6615C59.9896 21.9039 59.0009 20.8509 58.304 19.5024C57.607 18.1463 57.2585 16.5743 57.2585 14.7865C57.2585 12.9834 57.607 11.4077 58.304 10.0592C59.0009 8.70313 59.9896 7.6501 61.2699 6.9001C62.5578 6.14253 64.0843 5.76374 65.8494 5.76374C67.6146 5.76374 69.1373 6.14253 70.4176 6.9001C71.7055 7.6501 72.6979 8.70313 73.3949 10.0592C74.0919 11.4077 74.4403 12.9834 74.4403 14.7865C74.4403 16.5743 74.0919 18.1463 73.3949 19.5024C72.6979 20.8509 71.7055 21.9039 70.4176 22.6615C69.1373 23.4115 67.6146 23.7865 65.8494 23.7865ZM65.8722 20.0365C66.6752 20.0365 67.3456 19.8092 67.8835 19.3546C68.4214 18.8925 68.8267 18.2637 69.0994 17.4683C69.3797 16.6728 69.5199 15.7675 69.5199 14.7524C69.5199 13.7372 69.3797 12.8319 69.0994 12.0365C68.8267 11.241 68.4214 10.6122 67.8835 10.1501C67.3456 9.68798 66.6752 9.45692 65.8722 9.45692C65.0616 9.45692 64.3797 9.68798 63.8267 10.1501C63.2813 10.6122 62.8684 11.241 62.5881 12.0365C62.3153 12.8319 62.179 13.7372 62.179 14.7524C62.179 15.7675 62.3153 16.6728 62.5881 17.4683C62.8684 18.2637 63.2813 18.8925 63.8267 19.3546C64.3797 19.8092 65.0616 20.0365 65.8722 20.0365Z" fill="white"/>
</svg>
