<svg width="110" height="60" viewBox="0 0 110 60" fill="none" xmlns="http://www.w3.org/2000/svg">
<path d="M15.1705 43V16.8182H18.3409V40.1875H30.5114V43H15.1705ZM42.9886 43.4091C41.2159 43.4091 39.6605 42.9872 38.3224 42.1435C36.9929 41.2997 35.9531 40.1193 35.2031 38.6023C34.4616 37.0852 34.0909 35.3125 34.0909 33.2841C34.0909 31.2386 34.4616 29.4531 35.2031 27.9276C35.9531 26.402 36.9929 25.2173 38.3224 24.3736C39.6605 23.5298 41.2159 23.108 42.9886 23.108C44.7614 23.108 46.3125 23.5298 47.642 24.3736C48.9801 25.2173 50.0199 26.402 50.7614 27.9276C51.5114 29.4531 51.8864 31.2386 51.8864 33.2841C51.8864 35.3125 51.5114 37.0852 50.7614 38.6023C50.0199 40.1193 48.9801 41.2997 47.642 42.1435C46.3125 42.9872 44.7614 43.4091 42.9886 43.4091ZM42.9886 40.6989C44.3352 40.6989 45.4432 40.3537 46.3125 39.6634C47.1818 38.973 47.8253 38.0653 48.2429 36.9403C48.6605 35.8153 48.8693 34.5966 48.8693 33.2841C48.8693 31.9716 48.6605 30.7486 48.2429 29.6151C47.8253 28.4815 47.1818 27.5653 46.3125 26.8665C45.4432 26.1676 44.3352 25.8182 42.9886 25.8182C41.642 25.8182 40.5341 26.1676 39.6648 26.8665C38.7955 27.5653 38.152 28.4815 37.7344 29.6151C37.3168 30.7486 37.108 31.9716 37.108 33.2841C37.108 34.5966 37.3168 35.8153 37.7344 36.9403C38.152 38.0653 38.7955 38.973 39.6648 39.6634C40.5341 40.3537 41.642 40.6989 42.9886 40.6989ZM64.418 50.7727C62.9606 50.7727 61.7077 50.5852 60.6594 50.2102C59.6112 49.8438 58.7376 49.358 58.0387 48.7528C57.3484 48.1563 56.7987 47.517 56.3896 46.8352L58.793 45.1477C59.0657 45.5057 59.4109 45.9148 59.8285 46.375C60.2461 46.8438 60.8171 47.2486 61.5415 47.5895C62.2745 47.9389 63.2333 48.1136 64.418 48.1136C66.0032 48.1136 67.3114 47.7301 68.3427 46.9631C69.3739 46.196 69.8896 44.9943 69.8896 43.358V39.3693H69.6339C69.4123 39.7273 69.0969 40.1705 68.6879 40.6989C68.2873 41.2188 67.7077 41.6832 66.9492 42.0923C66.1992 42.4929 65.185 42.6932 63.9066 42.6932C62.3214 42.6932 60.8981 42.3182 59.6367 41.5682C58.3839 40.8182 57.391 39.7273 56.658 38.2955C55.9336 36.8636 55.5714 35.125 55.5714 33.0795C55.5714 31.0682 55.9251 29.3168 56.6325 27.8253C57.3398 26.3253 58.3242 25.1662 59.5856 24.348C60.8469 23.5213 62.3043 23.108 63.9577 23.108C65.2362 23.108 66.2504 23.321 67.0004 23.7472C67.7589 24.1648 68.3384 24.642 68.739 25.179C69.1481 25.7074 69.4634 26.142 69.685 26.483H69.9918V23.3636H72.9066V43.5625C72.9066 45.25 72.5231 46.6222 71.756 47.679C70.9975 48.7443 69.9748 49.5241 68.6879 50.0185C67.4094 50.5213 65.9862 50.7727 64.418 50.7727ZM64.3157 39.983C65.5259 39.983 66.5487 39.706 67.3839 39.152C68.2191 38.598 68.854 37.8011 69.2887 36.7614C69.7234 35.7216 69.9407 34.4773 69.9407 33.0284C69.9407 31.6136 69.7276 30.3651 69.3015 29.2827C68.8754 28.2003 68.2447 27.3523 67.4094 26.7386C66.5742 26.125 65.543 25.8182 64.3157 25.8182C63.0373 25.8182 61.9719 26.142 61.1197 26.7898C60.2759 27.4375 59.641 28.3068 59.2148 29.3977C58.7972 30.4886 58.5884 31.6989 58.5884 33.0284C58.5884 34.392 58.8015 35.598 59.2276 36.6463C59.6623 37.6861 60.3015 38.5043 61.1452 39.1009C61.9975 39.6889 63.0543 39.983 64.3157 39.983ZM86.4066 43.4091C84.6339 43.4091 83.0785 42.9872 81.7404 42.1435C80.4109 41.2997 79.3711 40.1193 78.6211 38.6023C77.8796 37.0852 77.5089 35.3125 77.5089 33.2841C77.5089 31.2386 77.8796 29.4531 78.6211 27.9276C79.3711 26.402 80.4109 25.2173 81.7404 24.3736C83.0785 23.5298 84.6339 23.108 86.4066 23.108C88.1793 23.108 89.7305 23.5298 91.06 24.3736C92.3981 25.2173 93.4379 26.402 94.1793 27.9276C94.9293 29.4531 95.3043 31.2386 95.3043 33.2841C95.3043 35.3125 94.9293 37.0852 94.1793 38.6023C93.4379 40.1193 92.3981 41.2997 91.06 42.1435C89.7305 42.9872 88.1793 43.4091 86.4066 43.4091ZM86.4066 40.6989C87.7532 40.6989 88.8612 40.3537 89.7305 39.6634C90.5998 38.973 91.2433 38.0653 91.6609 36.9403C92.0785 35.8153 92.2873 34.5966 92.2873 33.2841C92.2873 31.9716 92.0785 30.7486 91.6609 29.6151C91.2433 28.4815 90.5998 27.5653 89.7305 26.8665C88.8612 26.1676 87.7532 25.8182 86.4066 25.8182C85.06 25.8182 83.9521 26.1676 83.0827 26.8665C82.2134 27.5653 81.57 28.4815 81.1523 29.6151C80.7347 30.7486 80.5259 31.9716 80.5259 33.2841C80.5259 34.5966 80.7347 35.8153 81.1523 36.9403C81.57 38.0653 82.2134 38.973 83.0827 39.6634C83.9521 40.3537 85.06 40.6989 86.4066 40.6989Z" fill="white"/>
</svg>
